<svg width="34" height="30" viewBox="0 0 34 30" xmlns="http://www.w3.org/2000/svg">
    <g fill="none" fill-rule="evenodd">
        <path d="M17.176 21.426c2.538.115 6 5.672 4.73 7.014-1.957 2.073-3.345 0-4.73.23-1.384.23-3.922 1.38-5.306 0-1.386-1.379 2.653-7.363 5.306-7.244zm-7.093-3.487c1.038-.412 2.37.481 2.975 1.995.604 1.512.253 3.074-.786 3.484-1.04.412-2.372-.48-2.976-1.992-.605-1.513-.253-3.075.787-3.487zm11.75 1.7c1.06-1.09 2.525-1.386 3.273-.659.747.724.496 2.193-.563 3.282-1.06 1.089-2.525 1.384-3.273.659-.749-.723-.496-2.195.562-3.282zm-.868-6.307c1.088.311 1.565 1.973 1.066 3.713-.5 1.74-1.786 2.899-2.876 2.589-1.088-.31-1.565-1.974-1.065-3.713.5-1.74 1.786-2.9 2.875-2.589zm-6.615-.316c1.119-.177 2.258 1.127 2.542 2.914.287 1.787-.387 3.381-1.505 3.558-1.118.178-2.255-1.126-2.543-2.913-.286-1.787.388-3.38 1.506-3.559z" stroke="#000"/>
        <path d="M28.664 23.901v-9.957c0-.34.27-.616.604-.616h2.168L16.822 1.488 2.564 13.66h2.168a.61.61 0 0 1 .604.616v9.625c0 .34-.27.498-.604.498-.334 0-.605-.157-.605-.498v-9.009H1.105a.604.604 0 0 1-.559-.38.624.624 0 0 1 .131-.672L16.394.18a.598.598 0 0 1 .856 0l16.073 13.328a.624.624 0 0 1 .13.672c-.093.23-.314.38-4.54.38h.96v9.341c0 .34-.271.498-.605.498-.334 0-.604-.157-.604-.498z" fill="#000"/>
    </g>
</svg>
