<svg width="30" height="30" viewBox="0 0 30 30" xmlns="http://www.w3.org/2000/svg">
    <g fill="#000" fill-rule="evenodd">
        <path d="m16.477 12.76 11.756 10.345c.501.426.783 1.035.8 1.713a2.56 2.56 0 0 1-.81 1.926c-.005 0-.008.01-.013.01l-.484.483c-.593.542-1.355.852-2.079.803a2.213 2.213 0 0 1-1.57-.784L13.731 15.508l2.746-2.748zm9.296 16.248c.925 0 1.872-.387 2.623-1.074l.492-.494A3.501 3.501 0 0 0 30 24.798c-.021-.948-.435-1.838-1.134-2.429l-12.09-10.635a.475.475 0 0 0-.662.02l-3.386 3.386a.478.478 0 0 0-.021.658L23.35 27.895c.592.678 1.368 1.065 2.243 1.113h.179z"/>
        <path d="m17.707 10.156-6.574 6.581-5.122-5.129 6.574-6.57 5.122 5.118zm-6.574 7.742a.506.506 0 0 0 .342-.135l7.258-7.258a.486.486 0 0 0 0-.687L12.926 4.01a.476.476 0 0 0-.684 0L4.984 11.27a.488.488 0 0 0 0 .687l5.806 5.807a.51.51 0 0 0 .343.135z"/>
        <path d="m5.122 12.063 5.544 5.545c.64.639.64 1.684 0 2.323a2.57 2.57 0 0 1-3.64 0L2.794 15.7c-.573-.57-.879-1.257-.862-1.935.014-.62.306-1.2.845-1.684.634-.638 1.884-.455 2.346-.02zm3.723 9.59c.906 0 1.813-.348 2.503-1.035a2.619 2.619 0 0 0 .002-3.697l-5.547-5.545c-.003 0-.005 0-.008-.01-.757-.716-2.637-1.035-3.684.01-.724.658-1.127 1.48-1.148 2.361-.023.948.384 1.887 1.146 2.642l4.234 4.239a3.542 3.542 0 0 0 2.502 1.035zM14.956.963c.659 0 1.317.252 1.818.755l4.234 4.238a2.565 2.565 0 0 1 0 3.63c-.608.61-1.61.9-2.275.232L12.926 4.01a1.342 1.342 0 0 1-.38-1.103c.042-.416.257-.852.59-1.19a2.566 2.566 0 0 1 1.82-.755zm4.71 10.2c.704 0 1.439-.3 2.024-.89a3.539 3.539 0 0 0 .002-5.004l-4.234-4.238a3.554 3.554 0 0 0-5.005 0c-.497.503-.805 1.132-.87 1.79-.069.716.165 1.384.659 1.877l5.806 5.807a2.283 2.283 0 0 0 1.618.658zM13.473 28.06H2.019c.303-.958 1.413-1.936 2.34-1.936h6.774c.927 0 2.037.978 2.34 1.936zm-12.017.967h12.58a.482.482 0 0 0 .484-.483c0-1.617-1.772-3.388-3.387-3.388H4.359c-1.615 0-3.387 1.771-3.387 3.388 0 .27.216.483.484.483z"/>
    </g>
</svg>
