<svg height="28" viewBox="0 0 30 28" width="30" xmlns="http://www.w3.org/2000/svg"><g fill="#222" fill-rule="evenodd"><path d="m21 24v-5c0-1.697-1.377-1.955-2-2h-16c-.642.051-2 .322-2 2v5zm-4 2h1v-1h-1zm-13 0h1v-1h-1zm0-12-1 2h16l-1-2c-.282-1.242-.883-2-2-2h-10c-1.256 0-1.858.758-2 2zm16 2c.812.14 2 1.14 2 3v5c0 .741-.259 1-1 1h-2v1c0 .619-.38 1-1 1h-1c-.484 0-1-.532-1-1v-1h-10v1c0 .483-.517 1-1 1h-1c-.468 0-1-.532-1-1v-1h-2c-.741 0-1-.259-1-1v-5c0-1.86 1.184-2.817 2-3l1-3c-.139.373-.124.332 0 0 .664-1.314 1.773-2 4-2h8c2.085 0 3.194.686 4 2-.023.333-.009.374 0 0z"/><path d="m4.99 21.072a1.205 1.205 0 0 1 -1.193-1.215c0-.68.513-1.192 1.192-1.192.671 0 1.217.535 1.217 1.192 0 .648-.569 1.215-1.217 1.215zm.001-3.204a1.97 1.97 0 0 0 -1.99 1.99 2 2 0 0 0 1.99 2.01c1.091 0 2.012-.92 2.012-2.01.001-1.098-.902-1.99-2.012-1.99zm11.994 3.204a1.204 1.204 0 0 1 -1.19-1.215c0-.68.511-1.192 1.19-1.192.671 0 1.217.535 1.217 1.192 0 .648-.569 1.215-1.217 1.215zm.002-3.204a1.97 1.97 0 0 0 -1.99 1.99 2 2 0 0 0 1.99 2.01c1.091 0 2.013-.92 2.013-2.01 0-1.098-.903-1.99-2.013-1.99zm-7.987 3.132h4v-1h-4zm17.114-2.415a2.703 2.703 0 0 1 -1.736-1.133l-5.968-8.74.826-.565 5.968 8.741c.515.755 1.623.963 2.376.448.779-.53.98-1.599.449-2.377l-5.97-8.74.827-.565 5.968 8.742a2.713 2.713 0 0 1 -.71 3.766 2.7 2.7 0 0 1 -2.03.423z"/><path d="m15.45 3.548a3.434 3.434 0 0 0 .478 2.87c1.045 1.528 3.29 1.95 4.816.907a3.444 3.444 0 0 0 1.453-2.22 3.446 3.446 0 0 0 -.544-2.597 3.474 3.474 0 0 0 -2.412-1.48l1.342 1.967a.503.503 0 0 1 -.13.696l-2.934 2.003a.501.501 0 0 1 -.695-.132zm2.513 5.304a4.44 4.44 0 0 1 -2.86-1.87 4.437 4.437 0 0 1 -.194-4.72.5.5 0 0 1 .848-.036l1.611 2.36 2.108-1.439-1.594-2.335a.498.498 0 0 1 .351-.779 4.51 4.51 0 0 1 4.245 1.911c.673.985.922 2.173.701 3.346a4.436 4.436 0 0 1 -1.87 2.861 4.442 4.442 0 0 1 -3.346.701zm7.371 6.775a.901.901 0 1 0 1.489-1.016.901.901 0 0 0 -1.489 1.016z"/></g></svg>