<svg width="29" height="30" viewBox="0 0 29 30" xmlns="http://www.w3.org/2000/svg">
    <g stroke="#000" fill="none" fill-rule="evenodd" stroke-linecap="round" stroke-linejoin="round">
        <path d="M10 29c.037-1.172.465-2.281 1.239-2.75m2.64-20s-4.731-2.5-6.939-2.5c-2.209 0-4.463 3-6.94 3 0 0 6.289 2 13.879 2"/>
        <path d="M13.75 6.25s3.74-2.5 5.949-2.5c2.207 0 5.452 3 7.93 3 0 0-6.289 2-13.879 2m0 0v20m1.826-4.517c6.004-4.103-.394-5.798-1.982-6.5-1.796-.797-5.368-3.164-3.47-5 1.087-1.053-.782-2.133-1.983-1-2.4 2.266 2.52 5.14 5.205 6m2.904-1.478c1.163-1.172 2.341-2.137.991-3.5-1.065-1.075.82-2.174 1.983-1 1.835 1.85-.289 3.64-2.974 4.5"/>
        <path d="M11.06 18.75c-3.046 1.719-4 3.915 2.975 6 4.181 1.25 3.965 4 3.965 4l-6.94-10zM17.199 3a2.988 2.988 0 0 1-2.975 3 2.988 2.988 0 0 1-2.974-3 2.988 2.988 0 0 1 2.975-3 2.988 2.988 0 0 1 2.974 3h0z"/>
    </g>
</svg>
