<svg height="30" viewBox="0 0 24 30" width="24" xmlns="http://www.w3.org/2000/svg"><g fill-rule="evenodd"><path d="m7.034 18h9.932c-.305-2.3-2.656-4.5-4.966-4.5s-4.661 2.2-4.966 4.5zm10.466 1h-11c-.276 0-.5-.22-.5-.5 0-3.02 2.972-6 6-6s6 2.98 6 6c0 .28-.224.5-.5.5z"/><path d="m1 5v11.5c0 4.09 6.796 10.85 11.5 12.48 4.75-1.66 10.5-8.46 10.5-12.48v-11.5c-3.173-.1-7.575-1.15-10.502-3.81-2.982 2.65-8.258 3.71-11.498 3.81zm11.5 25a.812.812 0 0 1 -.155-.02c-5.099-1.66-12.345-8.91-12.345-13.48v-12c0-.27.224-.5.5-.5 3.773 0 9.138-1.35 11.647-3.85a.49.49 0 0 1 .706 0c2.668 2.66 7.27 3.85 10.647 3.85.276 0 .5.23.5.5v12c0 4.48-6.15 11.79-11.345 13.48a.812.812 0 0 1 -.155.02z"/><path d="m3 6.95v9.55c0 2.25 5.427 8.55 9.5 10.45 4.04-1.9 8.5-8.14 8.5-10.45v-9.55c-3.188-.4-6.246-1.42-8.502-2.85-2.527 1.56-6.556 2.49-9.498 2.85zm9.5 21.05a.465.465 0 0 1 -.2-.04c-4.236-1.85-10.3-8.59-10.3-11.46v-10c0-.25.193-.47.447-.49 2.963-.32 7.3-1.27 9.776-2.92a.471.471 0 0 1 .554 0c2.252 1.5 5.451 2.56 8.776 2.92.254.02.447.24.447.49v10c0 2.86-5.078 9.62-9.3 11.46a.465.465 0 0 1 -.2.04z"/><path d="m12 8c-1.103 0-2 .9-2 2 0 1.11.897 2 2 2s2-.89 2-2c0-1.1-.897-2-2-2zm0 5a3 3 0 1 1 0-6 3 3 0 0 1 0 6z"/></g></svg>