<svg width="30" height="30" viewBox="0 0 30 30" xmlns="http://www.w3.org/2000/svg">
    <path d="M27.953 26.667h-5.01a.385.385 0 0 1-.326-.195l-3.306-6.11a5.937 5.937 0 0 0-.515-.832 2.657 2.657 0 0 0-.26-.21 1.634 1.634 0 0 0-.6-.293 2.704 2.704 0 0 0-.862-.145 13816.396 13816.396 0 0 1-11.988.912c-.648.05-3.024.21-3.975.29v.967c2.431-.178 13.946-.951 14.33-.978l.932-.064.577-.04c.053-.003.108-.012.161-.011.26.005.5.082.716.2l.037.022a.549.549 0 0 1 .188.187l3.928 7.217a.385.385 0 0 0 .327.194h5.646a.556.556 0 0 1 0 1.11H21.67a.386.386 0 0 1-.328-.194l-2.453-4.25H1.11v1.112h17.241l2.355 4.25a.38.38 0 0 0 .325.194h6.921a1.667 1.667 0 1 0 0-3.333zM5.647 9.322a.553.553 0 0 1 .54-.433h6.385c.221 0 .422.132.51.334l3.15 7.266a.557.557 0 0 1-.29.731.549.549 0 0 1-.423.007.549.549 0 0 1-.307-.296l-1.66-3.832a.786.786 0 0 0-.76-.477.79.79 0 0 0-.719.534l-1.379 3.99 1.208-.092.955-2.763 1.334 3.081c.178.41.503.725.918.888.414.163.867.157 1.277-.021a1.67 1.67 0 0 0 .865-2.192l-3.15-7.266a1.667 1.667 0 0 0-1.529-1.003H6.188c-.784 0-1.452.534-1.626 1.299L2.603 17.75c.39-.029.786-.057 1.16-.083l1.884-8.345zm3.797-2.655a2.782 2.782 0 0 1-2.778-2.778A2.782 2.782 0 0 1 9.444 1.11a2.782 2.782 0 0 1 2.778 2.778 2.782 2.782 0 0 1-2.778 2.778zm3.89-2.778a3.89 3.89 0 1 0-7.78.001 3.89 3.89 0 0 0 7.78-.001zm11.666 15a2.782 2.782 0 0 1 2.778 2.778A2.782 2.782 0 0 1 25 24.444a2.782 2.782 0 0 1-2.779-2.777A2.782 2.782 0 0 1 25 18.889zm0 6.667a3.89 3.89 0 1 0-.001-7.78 3.89 3.89 0 0 0 .001 7.78zm-7.779 1.11H.554a.555.555 0 0 0 0 1.112h16.667a.556.556 0 1 0 0-1.111z" fill="#000" fill-rule="evenodd"/>
</svg>
