<svg xmlns="http://www.w3.org/2000/svg" width="35" height="22" viewBox="0 0 35 22">
    <path fill="#222" fill-rule="evenodd" d="M30.625 3.8v7.525c0 .356.353.726.699.726h1.488V11H31.72V3.8c.218-1.16.933-2.138 2.187-2.424V22H35V.646A.636.636 0 0 0 34.375 0c-2.027 0-3.75 1.705-3.75 3.8zM19.21 20.729c-4.991 0-9.051-4.062-9.051-9.056 0-4.995 4.06-9.058 9.05-9.058 4.994 0 9.055 4.063 9.055 9.058 0 4.994-4.061 9.056-9.054 9.056zm0-19.384c-5.69 0-10.32 4.633-10.32 10.328 0 5.694 4.63 10.325 10.32 10.325 5.691 0 10.321-4.631 10.321-10.325 0-5.695-4.63-10.328-10.321-10.328zm.113 14.944a4.613 4.613 0 0 1-4.606-4.61 4.612 4.612 0 0 1 4.605-4.607 4.613 4.613 0 0 1 4.607 4.609c0 2.54-2.543 4.602-5.083 4.602l.477.006zm0-10.446a5.842 5.842 0 0 0-5.834 5.837 5.843 5.843 0 0 0 5.834 5.837 5.842 5.842 0 0 0 5.833-5.837c0-3.219-3.093-5.841-6.31-5.841l.477.004zM4.375 6.6h1.094V0H4.375v6.6zm2.188 0c-.258.952-1.313 1.93-2.735 2.2-1.334-.27-2.477-1.249-2.734-2.2V0H0v6.178C0 8.04 1.372 9.57 3.281 9.9V22h1.094V9.9c1.91-.329 3.281-1.86 3.281-3.722V0H6.563v6.6zm-4.375 0H3.28V0H2.187v6.6z"/>
</svg>
