<svg xmlns="http://www.w3.org/2000/svg" xmlns:xlink="http://www.w3.org/1999/xlink" width="84" height="34" viewBox="0 0 84 34">
    <defs>
        <path id="zldwsivcda" d="M0 0L34 0 34 34 0 34z"/>
    </defs>
    <g fill="none" fill-rule="evenodd">
        <g>
            <g>
                <g>
                    <g transform="translate(-646.000000, -656.000000) translate(0.000000, 318.000000) translate(646.000000, 338.000000)">
                        <circle cx="17" cy="17" r="17" fill="#FFF"/>
                        <g>
                            <mask id="31g64ohnzb" fill="#fff">
                                <use xlink:href="#zldwsivcda"/>
                            </mask>
                            <path fill="#1877F2" d="M34 17.104C34 7.658 26.389 0 17 0S0 7.658 0 17.104C0 25.64 6.217 32.717 14.344 34V22.048h-4.317v-4.944h4.317v-3.768c0-4.287 2.538-6.655 6.42-6.655 1.86 0 3.806.334 3.806.334v4.21h-2.143c-2.112 0-2.77 1.318-2.77 2.67v3.209h4.714l-.754 4.944h-3.96V34C27.782 32.717 34 25.64 34 17.104" mask="url(#31g64ohnzb)"/>
                        </g>
                    </g>
                    <g fill-rule="nonzero">
                        <g fill="#1B9DF0" transform="translate(-646.000000, -656.000000) translate(0.000000, 318.000000) translate(646.000000, 338.000000) translate(50.000000, 0.000000)">
                            <circle cx="17" cy="17" r="17"/>
                        </g>
                        <g fill="#FFF">
                            <path d="M6.264 16.235c7.54 0 11.663-6.247 11.663-11.662 0-.179 0-.357-.009-.527.799-.578 1.496-1.3 2.049-2.125-.732.323-1.522.544-2.355.646.85-.51 1.496-1.309 1.802-2.27-.79.468-1.666.808-2.601.995C16.065.493 15.003 0 13.821 0 11.56 0 9.724 1.836 9.724 4.097c0 .323.034.637.11.935C6.427 4.862 3.41 3.23 1.386.748c-.349.603-.553 1.309-.553 2.057 0 1.42.723 2.677 1.827 3.408-.671-.016-1.3-.204-1.853-.51v.051c0 1.99 1.411 3.639 3.29 4.021-.34.093-.706.144-1.08.144-.263 0-.518-.025-.773-.076.518 1.632 2.031 2.813 3.825 2.848-1.402 1.096-3.17 1.75-5.091 1.75-.332 0-.655-.017-.978-.059 1.794 1.173 3.952 1.853 6.264 1.853" transform="translate(-646.000000, -656.000000) translate(0.000000, 318.000000) translate(646.000000, 338.000000) translate(50.000000, 0.000000) translate(7.624500, 9.732500)"/>
                        </g>
                    </g>
                </g>
            </g>
        </g>
    </g>
</svg>
