<svg height="52" viewBox="0 0 150 52" width="150" xmlns="http://www.w3.org/2000/svg"><g fill="none"><path d="m0 0h51.37v52h-51.37z" fill="#000"/><path d="m8.043 1.839h-2.951v8.992h-1.997v-8.992h-2.889v-1.838h7.841zm2.472-1.838v3.939c.63-.658 1.5-1.024 2.406-1.013.775-.03 1.528.27 2.074.829.622.672.637 1.454.637 2.346v4.715h-1.784v-4.212c.021-.367-.02-.734-.12-1.087-.2-.55-.74-.894-1.317-.84-.846.008-1.589.574-1.83 1.395-.073.404-.094.815-.063 1.224v3.519h-1.815v-10.816h1.812zm13.862 9.099c-.83 1.236-2.216 1.97-3.693 1.954-1.981 0-3.89-1.27-3.89-4.09 0-2.572 1.635-4.03 3.77-4.03 1.997 0 2.832 1.212 2.982 1.439.622.887.773 2.22.773 2.987h-5.6c.212 1.212.953 1.9 2.147 1.9.795.032 1.546-.371 1.966-1.056l1.545.895zm-2.055-3.09c-.166-1.196-.892-1.606-1.696-1.606-.97 0-1.633.567-1.846 1.607h3.542zm7.188-6.009h3.407c1.42 0 2.375 0 3.313.782.784.654 1.221 1.64 1.182 2.667.058 1.363-.811 2.59-2.105 2.971l2.376 4.399h-2.28l-2.123-4.027h-1.785v4.023h-1.981l-.004-10.816zm1.98 1.749v3.386h.696c.68 0 .938 0 1.317-.031.44 0 1.877-.094 1.877-1.67.023-.61-.308-1.178-.846-1.454-.425-.215-.939-.23-2.12-.23h-.924zm14.366 7.35c-.83 1.236-2.216 1.97-3.693 1.954-1.981 0-3.89-1.27-3.89-4.09 0-2.572 1.634-4.03 3.77-4.03 1.997 0 2.831 1.212 2.982 1.439.622.887.773 2.22.773 2.987h-5.6c.212 1.212.953 1.9 2.147 1.9.795.032 1.546-.371 1.966-1.056l1.545.895zm-2.06-3.09c-.165-1.196-.891-1.606-1.695-1.606-.97 0-1.633.567-1.846 1.607h3.542zm2.909-.601c.007-.403.11-.797.302-1.15.726-1.333 2.526-1.333 3.012-1.333.786-.037 1.568.132 2.271.489.893.55.908 1.27.908 2.1v4.061c-.064.442.056.891.332 1.24h-2.147c0-.184-.047-.489-.047-.598-.637.511-1.427.787-2.24.782-1.71 0-2.738-1.072-2.738-2.39.002-.36.086-.714.247-1.035.544-1.103 1.71-1.35 2.437-1.486.794-.133 1.577-.323 2.344-.567 0-.391-.03-1.173-1.286-1.173-.772 0-1.158.246-1.348.489-.146.19-.211.433-.181.672zm4.678 1.595c-.502.238-1.038.393-1.588.461-.653.094-1.514.246-1.514 1.056 0 .598.498.903 1.225.903.923 0 1.575-.43 1.768-.888.086-.218.122-.453.105-.688zm5.295-7.003v10.815h-1.831v-10.815zm-51.13 24.175v4.277h-1.97v-4.277l-3.573-6.542h2.256l2.317 4.489 2.345-4.489h2.217zm10.007 2.557c-.83 1.236-2.216 1.97-3.692 1.954-1.982 0-3.89-1.27-3.89-4.09 0-2.572 1.634-4.03 3.77-4.03 1.997 0 2.831 1.208 2.982 1.439.621.887.772 2.22.772 2.987h-5.585c.213 1.212.954 1.9 2.148 1.9.795.032 1.546-.371 1.966-1.056zm-2.059-3.097c-.166-1.204-.88-1.595-1.695-1.595-.97 0-1.634.567-1.846 1.607zm4.979-6.002v10.819h-1.831v-10.819zm3.48 0v10.819h-1.831v-10.819zm5.133 11.053c-2.36 0-3.936-1.747-3.936-4.09 0-2.341 1.603-4.03 3.863-4.03 2.105 0 3.905 1.486 3.92 4.03-.004 2.382-1.56 4.09-3.847 4.09zm-.093-6.466c-1.135 0-1.95.918-1.95 2.346 0 1.563.954 2.45 2.043 2.45 1.317 0 1.982-1.172 1.931-2.435-.05-1.263-.749-2.365-2.024-2.365zm13.38-1.431h1.892l-2.267 7.663h-1.8l-1.363-4.887-1.452 4.887h-1.785l-2.198-7.663h1.893l1.317 5.239 1.406-5.239h1.618l1.391 5.239zm6.859-3.156h3.62c.614-.026 1.23.03 1.83.169 1.535.397 2.584 1.83 2.51 3.432 0 1.44-.664 2.987-2.572 3.418-.592.116-1.196.162-1.8.136h-1.544v3.664h-2.013l-.03-10.819zm2.013 1.733v3.753h1.437c.38.018.762-.014 1.135-.094.824-.204 1.381-.981 1.317-1.838.029-.515-.164-1.018-.529-1.38-.498-.43-1.197-.445-1.846-.445zm6.628 3.675c.007-.403.11-.797.3-1.15.727-1.333 2.527-1.333 3.014-1.333.785-.037 1.568.131 2.27.489.893.551.908 1.27.908 2.1v4.058c-.063.441.057.89.332 1.239h-2.147c0-.184-.046-.489-.046-.598-.637.511-1.428.787-2.24.782-1.712 0-2.739-1.072-2.739-2.39 0-.362.083-.719.243-1.043.545-1.103 1.711-1.349 2.437-1.486.794-.133 1.578-.322 2.345-.567 0-.39-.03-1.173-1.286-1.173-.773 0-1.159.247-1.348.49-.146.19-.212.432-.182.672zm4.677 1.595c-.502.236-1.038.39-1.587.457-.653.09-1.515.247-1.515 1.056 0 .598.499.903 1.225.903.923 0 1.576-.43 1.769-.887.085-.219.12-.454.104-.689zm10.386-3.847v6.283c0 1.517 0 2.13-.483 2.772-.425.567-1.363 1.173-3.148 1.173-2.703 0-3.225-1.173-3.476-2.405h1.997c.135.446.452.95 1.545.95.923 0 1.332-.367 1.499-.614.274-.39.274-.828.274-1.763-.63.55-1.44.845-2.271.829-1.785 0-3.283-1.224-3.283-3.66 0-2.85 2.012-3.784 3.406-3.784.842-.046 1.649.34 2.148 1.028v-.782zm-3.63 1.411c-.924 0-1.862.63-1.862 2.1 0 1.333.803 2.021 1.877 2.021.97 0 1.846-.536 1.861-1.955-.003-1.231-.668-2.166-1.896-2.166zm12.362 4.532c-.829 1.236-2.215 1.97-3.692 1.954-1.981 0-3.89-1.27-3.89-4.09 0-2.572 1.635-4.03 3.77-4.03 1.997 0 2.832 1.208 2.982 1.439.622.887.773 2.22.773 2.987h-5.585c.212 1.212.954 1.9 2.147 1.9.796.032 1.547-.371 1.966-1.056l1.53.896zm-2.058-3.097c-.166-1.204-.88-1.595-1.695-1.595-.97 0-1.634.567-1.847 1.607zm3.843 2.549c.531.66 1.34 1.024 2.179.982 1.042 0 1.498-.52 1.498-.904 0-.488-.544-.613-.772-.656s-1.499-.294-1.77-.368c-1.8-.43-2.131-1.486-2.131-2.174 0-1.302 1.158-2.498 3.236-2.498.888-.023 1.762.234 2.5.735.29.187.551.42.772.688l-1.302 1.224c-.387-.779-1.2-1.242-2.058-1.173-.862 0-1.256.39-1.256.782 0 .551.56.704 1.545.872 1.576.289 2.013.367 2.495.75.488.394.772.991.773 1.623 0 1.196-1.058 2.62-3.407 2.62-1.339.037-2.64-.452-3.63-1.365z" fill="#000" transform="translate(57.367 12.365)"/><path d="m1.538 3.13c-.85-.013-1.53-.72-1.522-1.58.009-.86.702-1.551 1.554-1.547.85.005 1.537.703 1.537 1.564 0 .419-.166.82-.46 1.114-.295.294-.694.456-1.108.45zm0-3.022c-.784-.002-1.422.638-1.425 1.432-.004.794.628 1.44 1.412 1.445s1.424-.633 1.43-1.427c-.002-.788-.631-1.426-1.41-1.43l-.007-.02zm-.027.43c.155-.01.31.007.46.05.192.07.32.255.316.462.004.233-.16.435-.386.477.158.07.236.148.282.418.014.205.065.405.15.59h-.386c-.04-.086-.066-.178-.077-.273 0-.043-.039-.258-.05-.305-.054-.285-.19-.305-.444-.313h-.147v.896h-.352v-1.994zm-.282.82h.29c.139 0 .42 0 .42-.273.004-.1-.05-.191-.138-.234-.113-.037-.231-.047-.348-.032h-.224v.54z" fill="#233142" transform="translate(144.843 29.978)"/><g transform="translate(10.26 12.605)"><path d="m.014 22.928h31.678v3.467h-31.678z" fill="#ffd400"/><path d="m9.735 17.3c-1.004 2.85-2.317 3.773-4.99 3.773-.906.001-1.803-.171-2.646-.508v-3.347c.745.304 1.538.467 2.341.481 1.182 0 1.684-.61 1.684-1.384-.043-.434-.162-.856-.351-1.247-.24-.626-5.683-14.685-5.683-14.685h4.044l3.928 11.8h.05l3.478-11.801h3.863zm6.915-16.917h3.7v1.321h.062c1.258-1.116 2.883-1.717 4.557-1.684 3.881 0 6.805 3.652 6.805 8.133 0 4.124-2.402 8.136-7.234 8.136-1.931 0-3.507-.692-4.19-1.54v6.138h-3.7zm11.247 7.769c-.03-2.24-1.042-4.692-3.831-4.692s-3.805 2.455-3.835 4.692c.03 2.24 1.042 4.691 3.835 4.691 2.792 0 3.8-2.455 3.831-4.691z" fill="#fff"/></g></g></svg>